<?xml version="1.0"?>
<svg width="260" height="179" xmlns="http://www.w3.org/2000/svg" xmlns:svg="http://www.w3.org/2000/svg" version="1.1">
 <g class="layer">
  <title>Layer 1</title>
  <path d="m156.5,12.06c0.95,0 1.9,-0.01 2.87,-0.01c24.9,0.01 52.61,5.47 71.21,23.48c0.47,0.48 0.94,0.97 1.42,1.47c1.29,1.06 2.58,2.13 3.88,3.19c6.96,6.11 10.37,14.13 14.37,22.34c1.67,3.49 1.67,3.49 3.85,6.56c3.05,5.29 3.2,11.44 3.78,17.41c0.12,1.25 0.25,2.5 0.38,3.78c1.34,14.91 0.23,26.3 -9.13,38.34c-0.43,0.56 -0.85,1.12 -1.28,1.7c-6.77,8.77 -15.16,12.05 -25.85,13.68c-13,0.86 -25.69,-0.82 -38,-5c-0.33,1 -0.33,1 -0.67,2.02c-5.61,12.56 -16.54,24.55 -29.14,30.25c-14.97,4.76 -37.73,2.67 -51.69,-4.52c-4.85,-3.05 -8.84,-6.36 -12.5,-10.75c-1.18,-1.4 -1.18,-1.4 -2.38,-2.82c-6.33,-7.61 -6.33,-7.61 -7.62,-10.18c-1.4,0.14 -1.4,0.14 -2.83,0.29c-17.72,1.49 -39.12,1 -53.86,-10.42c-10.12,-10.41 -14.55,-28.6 -15.17,-42.81c-0.07,-2.26 -0.07,-2.26 -1.14,-5.06c-1.16,-13.44 2.5,-23.79 10.7,-34.37c6.16,-7.23 14.46,-12.39 22.3,-17.63c0.6,-0.41 1.2,-0.82 1.82,-1.24c10.09,-6.85 18.66,-9.46 30.67,-11.24c1.45,-0.22 2.9,-0.44 4.35,-0.66c4.67,-0.71 9.35,-1.38 14.03,-2.05c0.8,-0.11 1.59,-0.23 2.41,-0.35c21.07,-3 41.9,-5.46 63.22,-5.4z" fill="#FCFCFC" id="svg_1" transform="matrix(1 0 0 1 0 0)"/>
  <path d="m156.5,12.06c0.95,0 1.9,-0.01 2.87,-0.01c24.9,0.01 52.61,5.47 71.21,23.48c0.47,0.48 0.94,0.97 1.42,1.47c1.29,1.06 2.58,2.13 3.88,3.19c6.96,6.11 10.37,14.13 14.37,22.34c1.67,3.49 1.67,3.49 3.85,6.56c3.05,5.29 3.2,11.44 3.78,17.41c0.12,1.25 0.25,2.5 0.38,3.78c1.34,14.91 0.23,26.3 -9.13,38.34c-0.43,0.56 -0.85,1.12 -1.28,1.7c-6.77,8.77 -15.16,12.05 -25.85,13.68c-13,0.86 -25.69,-0.82 -38,-5c-0.33,1 -0.33,1 -0.67,2.02c-5.61,12.56 -16.54,24.55 -29.14,30.25c-14.97,4.76 -37.73,2.67 -51.69,-4.52c-4.85,-3.05 -8.84,-6.36 -12.5,-10.75c-1.18,-1.4 -1.18,-1.4 -2.38,-2.82c-6.33,-7.61 -6.33,-7.61 -7.62,-10.18c-1.4,0.14 -1.4,0.14 -2.83,0.29c-17.72,1.49 -39.12,1 -53.86,-10.42c-10.12,-10.41 -14.55,-28.6 -15.17,-42.81c-0.07,-2.26 -0.07,-2.26 -1.14,-5.06c-1.16,-13.44 2.5,-23.79 10.7,-34.37c6.16,-7.23 14.46,-12.39 22.3,-17.63c0.6,-0.41 1.2,-0.82 1.82,-1.24c10.09,-6.85 18.66,-9.46 30.67,-11.24c1.45,-0.22 2.9,-0.44 4.35,-0.66c4.67,-0.71 9.35,-1.38 14.03,-2.05c0.8,-0.11 1.59,-0.23 2.41,-0.35c21.07,-3 41.9,-5.46 63.22,-5.4zm-35.81,16.41c-4.29,0.84 -8.6,1.39 -12.93,1.97c-0.93,0.12 -1.86,0.25 -2.82,0.38c-2.94,0.39 -5.88,0.78 -8.82,1.18c-1.95,0.26 -3.91,0.52 -5.87,0.79c-1.44,0.19 -1.44,0.19 -2.9,0.38c-2.79,0.38 -5.58,0.77 -8.37,1.16c-2.97,0.41 -5.93,0.77 -8.91,1.09c-7.66,0.9 -12.8,3.12 -19.07,7.58c-0.81,0.54 -1.61,1.09 -2.44,1.65c-2.45,1.68 -4.85,3.41 -7.25,5.16c-1.2,0.85 -1.2,0.85 -2.43,1.71c-7.61,5.55 -14.01,12.36 -16.88,21.48c-4.19,15.22 2.65,36.2 10.34,47.49c14.69,7.02 22.41,7.67 30.78,7.63c0.78,0.01 1.55,0.01 2.34,0.01c4.31,0 8.29,-0.37 12.54,-1.13c1.79,-0.07 3.58,-0.09 5.37,-0.06c0.88,0 1.75,0.01 2.65,0.02c0.66,0.01 1.31,0.03 1.98,0.04c0.25,0.53 0.5,1.07 0.75,1.62c2.93,5.57 6.74,10.32 10.81,15.07c0.72,0.85 0.72,0.85 1.46,1.72c6.31,7.54 6.31,7.54 15.39,10.44c1.07,0.13 2.15,0.26 3.25,0.39c1.12,0.13 2.25,0.25 3.4,0.38c1.65,0.2 1.65,0.2 3.32,0.41c13.32,1.99 13.32,1.99 25.62,-2.03c0.58,-0.34 1.16,-0.67 1.75,-1.01c9.72,-6.24 16.07,-17.95 22.23,-27.45c1.02,-1.54 1.02,-1.54 2.02,-2.54c5.26,-0.52 8.96,0.26 13.94,2c6.97,2.12 13.6,2.45 20.87,2.5c1.06,0.02 2.13,0.03 3.22,0.05c7.88,-0.06 15.48,-4.01 20.31,-6.84c2.41,-1.42 12.05,-16.72 8.38,-35.64c-3.66,-18.91 -17.63,-38.43 -24.41,-42.26c-13.57,-7.67 -10.53,-4.9 -12.31,-5.81c-7.06,-6.15 -27.54,-11.33 -42.19,-11.27c-1.02,0 -2.05,0 -3.1,0c-2.15,-0.01 -4.3,0 -6.44,0.01c-3.26,0.01 -6.52,0 -9.78,-0.02c-2.1,0.01 -4.2,0.01 -6.3,0.01c-1.44,0 -1.44,0 -2.91,-0.01c-5.69,0.04 -11.01,0.64 -16.59,1.75z" fill="#130F0A" id="svg_2"/>
 </g>
</svg>