<?xml version="1.0" encoding="UTF-8"?>
<svg version="1.1" xmlns="http://www.w3.org/2000/svg" width="574" height="981">
<path d="M0 0 C3.80574899 3.74018357 7.57577056 7.5152419 11.34220528 11.29495009 C13.06383408 13.01168683 14.78611165 14.72777315 16.5089795 16.44326642 C20.24573146 20.16705205 23.97780546 23.89543352 27.70576691 27.62801322 C33.24965831 33.17875452 38.80209316 38.72089128 44.35615995 44.2614487 C54.85409253 54.73450139 65.3418477 65.21770599 75.82639832 75.70415303 C83.92443004 83.80355907 92.02505696 91.90036109 100.12751221 99.99534186 C101.29253603 101.15931533 102.45755849 102.32329017 103.62257958 103.48726637 C104.20091365 104.06508109 104.77924772 104.64289582 105.37510706 105.23822008 C105.95451341 105.81710629 106.53391976 106.39599249 107.13088387 106.9924207 C107.7112792 107.57229204 108.29167452 108.15216337 108.88965759 108.74960657 C125.20883265 125.0542028 141.52486116 141.36194236 157.83443951 157.67613849 C158.44900512 158.29087604 159.06357072 158.9056136 159.69675952 159.53897957 C162.81144255 162.65455146 165.9260976 165.77015132 169.04074288 168.88576094 C169.65929454 169.50450364 170.27784621 170.12324634 170.91514187 170.76073881 C172.16600273 172.01198677 173.41686198 173.26323635 174.66771961 174.51448753 C194.12791631 193.98065326 213.5987852 213.43608732 233.07802987 232.88319167 C254.97581498 254.74487633 276.865184 276.61493937 298.74245423 298.49715474 C301.07657073 300.8317412 303.41071708 303.1662978 305.74488282 305.50083503 C306.31958476 306.07563935 306.8942867 306.65044368 307.48640385 307.24266632 C316.15099607 315.90845189 324.82213774 324.5676472 333.49667191 333.22347983 C343.36604931 343.07158967 353.22664423 352.9283965 363.07571215 362.79681966 C368.58269451 368.31410462 374.0964169 373.82444087 379.62026472 379.32484137 C383.75158146 383.44017869 387.86964546 387.56860288 391.98279976 391.70209743 C393.6431662 393.36664417 395.30772221 395.02702515 396.9769668 396.68266854 C409.32721266 408.93914867 419.70187973 420.92257456 425.36928963 437.71644362 C425.95710213 439.42960769 425.95710213 439.42960769 426.55678963 441.17738112 C433.10264193 463.22417533 430.39850034 486.55049966 419.75991463 506.73988112 C412.4970887 519.12523177 402.8090657 528.70670177 392.70849251 538.77164992 C390.99501814 540.4900176 389.28219385 542.20903371 387.56996142 543.9286389 C383.85640066 547.65515539 380.13824322 551.3770196 376.41588997 555.09475097 C370.88036657 560.62341911 365.35345646 566.16063938 359.82811627 571.69948223 C349.38378486 582.16868171 338.92931371 592.62771585 328.47159354 603.08353899 C320.3946178 611.15914005 312.32024737 619.23733758 304.24769616 627.31736144 C303.08666294 628.47944501 301.92562836 629.64152721 300.76459241 630.80360805 C300.1882329 631.38048691 299.61187338 631.95736577 299.01804842 632.55172581 C298.44061726 633.12967711 297.8631861 633.70762842 297.26825702 634.3030934 C296.68983915 634.88203526 296.11142128 635.46097712 295.5154756 636.05746267 C279.25410202 652.33341296 262.98958768 668.60621926 246.71861481 684.87257346 C245.79913179 685.79179855 245.79913179 685.79179855 244.86107335 686.72959385 C241.75440885 689.8353695 238.64771637 692.94111717 235.54101412 696.04685507 C234.9240467 696.66363146 234.30707928 697.28040785 233.67141587 697.91587443 C232.42375867 699.16314454 231.17609985 700.41041303 229.92843942 701.6576799 C210.51581617 721.06433342 191.11392737 740.48166178 171.72036385 759.90736159 C149.91617067 781.74765523 128.10359919 803.57953278 106.27887523 825.39931151 C103.95048303 827.72723376 101.62212067 830.05518585 99.2937777 832.38315734 C98.43386569 833.24291577 98.43386569 833.24291577 97.55658172 834.12004306 C88.91437083 842.76106067 80.27874972 851.4086271 71.64649224 860.05958709 C61.82585484 869.90149181 51.99652087 879.73461424 42.15557019 889.55620955 C36.65383262 895.04764477 31.1590435 900.54581916 25.6741906 906.05411999 C21.57046174 910.17382875 17.45366079 914.28026863 13.33178074 918.38180883 C11.67197457 920.03743485 10.01633372 921.69725008 8.36543111 923.3617544 C-11.32763983 943.20592123 -31.94960563 956.00904106 -60.63071037 956.21644362 C-84.47022322 955.99348538 -104.3454828 947.43355907 -121.75571037 931.09144362 C-138.50311629 913.75827787 -145.32020256 891.97764287 -145.09872795 868.29676589 C-144.31589084 840.07148148 -129.74330611 820.33802492 -110.41928459 801.14425429 C-108.97218481 799.6958445 -107.52574521 798.24677489 -106.07990528 796.79710748 C-102.12553599 792.83605984 -98.1619241 788.88437757 -94.19668198 784.93421837 C-89.9145791 780.66510988 -85.64118963 776.38729452 -81.36671806 772.11054763 C-73.96653986 764.70879885 -66.56095198 757.3124925 -59.15149284 749.92003592 C-51.3842558 742.17057665 -43.62015286 734.41799916 -35.86017204 726.66127357 C-35.13524437 725.93665523 -35.13524437 725.93665523 -34.39567171 725.19739814 C-31.94112362 722.74386511 -29.48663098 720.29027661 -27.03215969 717.83666675 C-9.66687477 700.47767572 7.70534861 683.12564386 25.08169198 665.77772292 C41.95794512 648.92904229 58.83102989 632.07719894 75.69985604 615.2210823 C76.48041599 614.44111421 76.48041599 614.44111421 77.27674484 613.64538919 C82.50275286 608.42333688 87.72869675 603.2012204 92.95459368 597.97905692 C103.59945285 587.3418055 114.24473984 576.70498227 124.89028573 566.06841811 C125.37970304 565.57941267 125.86912036 565.09040722 126.3733685 564.58658343 C159.03150715 531.95602633 191.69964686 499.3354824 224.36928963 466.71644362 C222.74293933 462.61055406 219.78789826 459.86317745 216.70790219 456.81734046 C216.12013763 456.22816701 215.53237308 455.63899355 214.92679748 455.03196635 C212.94407864 453.04695036 210.95426741 451.06919816 208.9644587 449.09129104 C207.5318593 447.65996708 206.0997036 446.22819891 204.66795534 444.79602357 C200.72270581 440.85212758 196.77125119 436.9144994 192.81881129 432.97781118 C188.56076682 428.73453918 184.3085082 424.48547651 180.05561471 420.23704299 C172.6813352 412.87195978 165.30357957 405.51037099 157.9236052 398.15099486 C147.24414052 387.50117639 136.57172428 376.8443152 125.90126898 366.18547074 C120.93020575 361.21982387 115.95882605 356.25449383 110.98738789 351.28922233 C110.48966802 350.79211824 109.99194815 350.29501415 109.47914586 349.7828463 C97.62869359 337.94718175 85.77533023 326.11443408 73.92129159 314.28236159 C73.40256741 313.76459547 72.88384324 313.24682935 72.34940016 312.71337335 C60.25149359 300.63783988 48.15272446 288.56317115 36.05294442 276.48951491 C31.85833294 272.30393842 27.66373239 268.11835099 23.46914315 263.93275222 C22.95145619 263.4161775 22.43376923 262.89960278 21.90039478 262.36737428 C10.07635239 250.56868981 -1.74648023 238.76879766 -13.56484294 226.96442374 C-14.06190123 226.46795403 -14.55895952 225.97148433 -15.07108018 225.45997008 C-20.03422978 220.50262671 -24.99712171 215.5450255 -29.95965239 210.58706255 C-32.4014046 208.14757531 -34.84323024 205.70816158 -37.28510833 203.26880034 C-37.76567974 202.78872421 -38.24625114 202.30864807 -38.74138532 201.81402418 C-46.46969669 194.09403839 -54.20366847 186.3797473 -61.93996415 178.66776354 C-69.71940781 170.91260925 -77.49345213 163.1520723 -85.26231446 155.38631726 C-89.46989533 151.1807845 -93.67990908 146.97776395 -97.89654518 142.78130874 C-101.75897542 138.93727694 -105.6143828 135.08634257 -109.46439825 131.22987787 C-110.8561686 129.8382274 -112.25047669 128.44910914 -113.64760658 127.0628394 C-132.50597842 108.34374526 -144.77218923 87.68181449 -144.94321037 60.40394362 C-144.94321037 36.18313485 -136.66512426 16.3397081 -120.00571037 -1.40855638 C-86.26485354 -34.00916919 -33.11942167 -31.99452945 0 0 Z " fill="#010101" transform="translate(144.63071036711335,25.28355637565255)"/>
<path d="M0 0 C0.66 0.33 1.32 0.66 2 1 C-3.94 6.94 -9.88 12.88 -16 19 C-16.66 18.67 -17.32 18.34 -18 18 C-12.37361021 11.50903494 -6.55902307 5.55113536 0 0 Z " fill="#606060" transform="translate(34,16)"/>
</svg>
